<svg xmlns="http://www.w3.org/2000/svg" width="100" height="49" viewBox="0 0 100 49"><defs><style>.a{fill:#c4c4c4;}.b{fill:#fff;}</style></defs><g transform="translate(-604 -943)"><rect class="a" width="100" height="49" rx="10" transform="translate(604 943)"/><path class="b" d="M-13.975-3.2c.988-3.094,1.066-6.942-1.378-9.776-4.056-4.706-9.048-2.652-14.95-3.042-.312-.1-.442.052-.442.312,0,1.2,1.9.624,1.9,2.678V-.468c0,.988-1.092,1.352-1.768,1.716-.286.13-.1.676.156.676h9.126A7.857,7.857,0,0,0-13.975-3.2Zm-4.186,1.17A4.315,4.315,0,0,1-22.347.494c-1.716,0-3.276-.208-3.276-1.43V-13.39c.676-1.482,2.236-1.17,3.51-1.04a5.326,5.326,0,0,1,3.8,2.21C-16.575-9.7-16.653-5.252-18.161-2.028Zm6.812,3.952H-4.9c.286,0,.468-.624.052-.806C-5.5.832-6.513.546-6.513-.962v-12.3c0-1.04,1.222-1.742,1.612-1.9.364-.13.286-.91-.1-.91h-6.24c-.39,0-.468.78-.1.91.39.156,1.612.858,1.612,1.9v12.3c0,1.508-1.014,1.794-1.664,2.08C-11.817,1.3-11.635,1.924-11.349,1.924Zm24.8-17.342c.208-.156.234-.65-.208-.65H8.229c-.234,0-.6.312-.364.6.546.546,1.092.234,1.456.858A1.107,1.107,0,0,1,9.4-13.546L5.707-4.134c-.208.468-.234.832-.546.026L1.625-13.416c-.52-1.378.6-1.534,1.534-1.924.286-.1.26-.728-.156-.728H-2.8a.339.339,0,0,0-.286.572,3.819,3.819,0,0,1,1.352,1.534L4.095,1.43A.89.89,0,0,0,5.811,1.4L11.583-13.65C11.895-14.508,12.571-14.9,13.455-15.418ZM30.953,1.69c.39-.988-1.092-.546-1.716-2.106L23.7-15.548c-.442-1.274-2.6-1.04-2.964-.078L14.7-.208a2.434,2.434,0,0,1-1.248,1.3c-.26.182-.13.832.182.832h4.316c.858,0,.806-.858.156-.988A1.146,1.146,0,0,1,17.225-.65c.182-.442,1.248-3.172,1.508-3.718a26.832,26.832,0,0,1,5.408-.026c.832.624,1.742,3.692,1.9,4.576-.338.754-.832.676-1.274.91-.338.234-.182.832.078.832h5.694A.529.529,0,0,0,30.953,1.69ZM23.517-6.864c.052.208-.052.442-.468.546a12.969,12.969,0,0,1-3.172-.1c-.26-.1-.52-.416-.416-.65l1.872-5.174c.1-.26.338-.26.442.026Z" transform="translate(654 974)"/></g></svg>