<svg xmlns="http://www.w3.org/2000/svg" xmlns:xlink="http://www.w3.org/1999/xlink" width="85" height="31.623" viewBox="0 0 85 31.623"><defs><style>.a{fill:#737373;}.b{fill:#777;}.c{fill:#4f4f4f;}.d{fill:url(#a);}.e{fill:none;}.f{fill:url(#b);}.g{fill:#4a4a4a;}</style><linearGradient id="a" x1="-0.642" y1="-37.046" x2="-0.089" y2="-36.795" gradientUnits="objectBoundingBox"><stop offset="0" stop-color="#4f4f4f"/><stop offset="0.202" stop-color="#515151" stop-opacity="0.933"/><stop offset="0.448" stop-color="#595959" stop-opacity="0.745"/><stop offset="0.716" stop-color="#656565" stop-opacity="0.431"/><stop offset="1" stop-color="#777" stop-opacity="0"/></linearGradient><linearGradient id="b" x1="0.117" y1="0.441" x2="0.713" y2="0.602" gradientUnits="objectBoundingBox"><stop offset="0" stop-color="#4f4f4f"/><stop offset="0.259" stop-color="#505050" stop-opacity="0.957"/><stop offset="0.472" stop-color="#555" stop-opacity="0.831"/><stop offset="0.669" stop-color="#5e5e5e" stop-opacity="0.612"/><stop offset="0.855" stop-color="#6a6a6a" stop-opacity="0.31"/><stop offset="1" stop-color="#777" stop-opacity="0"/></linearGradient></defs><g transform="translate(-129.519 -1053.521)"><g transform="translate(129.519 1053.521)"><path class="a" d="M181.951,1082.017" transform="translate(-168.739 -1074.836)"/><path class="b" d="M135.931,1062.023l5.258-8.337h-3.715l-4.761,7.645h-.051v-7.81h-3.142v17.158h3.142v-7.746h.051l6.857,7.655-.016-4.518Z" transform="translate(-129.519 -1053.521)"/><path class="c" d="M180.491,1093.789a5.794,5.794,0,0,0-.673-1.618,4.934,4.934,0,0,0-1.08-1.235,5.773,5.773,0,0,0-1.417-.842,7.056,7.056,0,0,0-1.619-.437,13.1,13.1,0,0,0-1.948-.132l-4.054-.026a.407.407,0,0,0-.287.117.4.4,0,0,0-.119.287l.011,3.081.016,4.518.024,6.752a.4.4,0,0,0,.4.4h0a.4.4,0,0,0,.4-.4l-.049-13.944,2.356.022h1.3a12.269,12.269,0,0,1,1.827.124,6.245,6.245,0,0,1,1.431.384,4.969,4.969,0,0,1,1.218.723,4.137,4.137,0,0,1,.9,1.035,5.016,5.016,0,0,1,.577,1.395,7.31,7.31,0,0,1,.2,1.8,6.906,6.906,0,0,1-.617,3.125,4.117,4.117,0,0,1-1.774,1.8,8.529,8.529,0,0,1-3.853.711.4.4,0,0,0,0,.8,9.291,9.291,0,0,0,4.227-.8,4.908,4.908,0,0,0,2.117-2.147,7.683,7.683,0,0,0,.705-3.491A8.1,8.1,0,0,0,180.491,1093.789Z" transform="translate(-159.272 -1080.432)"/><path class="d" d="M149.64,1063.324l1.727,3.118-1.834,2.914-1.516-1.612a1.438,1.438,0,0,1-.051-1.733Z" transform="translate(-143.12 -1060.854)"/><path class="e" d="M220.707,1134.583H225l-2.137-5.7Z" transform="translate(-197.729 -1109.893)"/><path class="c" d="M185.072,1087.141a10.379,10.379,0,0,0-.341-2.3,8.3,8.3,0,0,0-1.062-2.378,7.825,7.825,0,0,0-1.747-2,8.427,8.427,0,0,0-2.379-1.238,7.851,7.851,0,0,0-1-.277c-.354-.075-.723-.139-1.1-.191s-.769-.092-1.165-.118-.792-.039-1.174-.039h-3.619a.4.4,0,0,0,0,.8h3.619c.365,0,.742.013,1.122.038s.749.063,1.107.112.707.11,1.042.181a7.033,7.033,0,0,1,.9.25,7.642,7.642,0,0,1,2.159,1.12,7.363,7.363,0,0,1,1.559,1.8,7.5,7.5,0,0,1,.958,2.148,9.578,9.578,0,0,1,.313,2.1l.005-.014Z" transform="translate(-160.612 -1072.281)"/><path class="c" d="M186.617,1108.608a10.372,10.372,0,0,1-2.233.592,18.561,18.561,0,0,1-2.858.2h-.476v-12.352a.4.4,0,1,0-.8,0v12.7c0,.009,0,.018,0,.026s0,.017,0,.026a.4.4,0,0,0,.4.4h.878a19.359,19.359,0,0,0,2.984-.21,11.2,11.2,0,0,0,2.405-.639,8.8,8.8,0,0,0,.927-.438l.506-1.275A7.332,7.332,0,0,1,186.617,1108.608Z" transform="translate(-167.464 -1085.779)"/><path class="b" d="M206.551,1112.5h-2.873l-.005.014L200.9,1119.5l-.506,1.275-3.367,8.485h3.34l1.662-4.386h6.217l1.644,4.386H213.2Zm-3.558,9.829,2.16-5.7,2.137,5.7Z" transform="translate(-180.015 -1097.635)"/><path class="f" d="M230.675,1112.5l-1.4,4.129.759,2.006,2.468-1.519Z" transform="translate(-204.139 -1097.636)"/></g><g transform="translate(159.913 1061.676)"><path class="g" d="M253.406,1091.973a12.686,12.686,0,0,1-1.965.191c-.223.009-1.3.009-1.3.009v-5.643h2.814v.839h-1.876v3.929l.786-.009a11.863,11.863,0,0,0,1.545-.173Zm2.126,2.161v-4.422h-.866v4.048h-.92v-7.621h.92v2.589h.866v-2.735h.92v8.141Z" transform="translate(-250.137 -1085.965)"/><path class="g" d="M280.7,1087.944v-.784h4.689v.784Zm2.34.355c1.25,0,2.09.62,2.09,1.413,0,.766-.848,1.386-2.1,1.386-1.179,0-2.081-.62-2.081-1.395S281.838,1088.3,283.035,1088.3Zm-1.251-1.659v-.757h2.474v.757Zm.009,7.266V1091.6h.991v1.449h4.51v.857Zm1.25-3.565c.616,0,1.081-.21,1.081-.638s-.464-.656-1.081-.656-1.117.237-1.117.647C281.927,1090.132,282.419,1090.341,283.044,1090.341Zm4.011-4.421v2.379h1.063v.893h-1.063v2.763H286.1v-6.035Z" transform="translate(-272.995 -1085.883)"/><path class="g" d="M318.158,1089.712a16.708,16.708,0,0,1-3.126.3c-.241,0-1.6.009-1.617.009v-3.665h3.814v.848h-2.867v1.96l1.1-.009a17.18,17.18,0,0,0,2.7-.274Zm-1.357,1.121c1.858,0,2.849.766,2.849,1.75s-.991,1.723-2.849,1.723-2.84-.738-2.84-1.732S314.943,1090.833,316.8,1090.833Zm.009,2.689c1.072,0,1.8-.374,1.8-.939,0-.583-.723-.939-1.8-.939s-1.831.356-1.831.939C314.978,1093.149,315.719,1093.523,316.809,1093.523Zm2.67-7.494v1.568h1.063v.866H319.48v2.352h-.956v-4.786Z" transform="translate(-297.47 -1085.992)"/><path class="g" d="M343.335,1094.079v-.857h2.019v-2.133h-1.117v-3.975h.965v3.118h4.868v.857h-1.125v2.133H350.8v.857Zm4.654-2.99h-1.679v2.133h1.679Z" transform="translate(-319.85 -1086.804)"/><path class="g" d="M382.841,1091.034V1089.6h-1.51v.766h-3.787v-4.093h.956v1.249h1.885v-1.249h.947v.857h1.51v-1.1h.956v5Zm-1.813.027c1.894,0,2.894.693,2.894,1.614s-1,1.614-2.894,1.614c-1.876,0-2.885-.7-2.885-1.614S379.143,1091.061,381.027,1091.061Zm-.643-2.707H378.5v1.167h1.885Zm.652,5.142c1.125,0,1.858-.338,1.858-.821,0-.511-.741-.83-1.867-.83s-1.858.31-1.858.821C379.17,1093.149,379.9,1093.5,381.036,1093.5Zm1.8-5.534h-1.51v.811h1.51Z" transform="translate(-345.439 -1085.992)"/><path class="g" d="M408.314,1087.907v-.775H413v.775Zm2.358.346c1.277,0,2.072.565,2.072,1.322s-.83,1.34-2.09,1.34c-1.153,0-2.081-.593-2.081-1.331C408.573,1088.819,409.448,1088.254,410.672,1088.254Zm3.01,5.844v-1.769h-4.475v-.83h5.466v2.6Zm-4.278-7.458v-.757h2.474v.757Zm1.259,3.556c.634,0,1.063-.228,1.063-.62s-.437-.611-1.063-.611c-.6,0-1.081.219-1.081.611S410.056,1090.2,410.663,1090.2Zm4.01-1.24v2.2h-.956v-5.232h.956v2.133h1.054v.9Z" transform="translate(-368.456 -1085.883)"/><path class="g" d="M445.739,1092.483a31.375,31.375,0,0,1-3.662.21h-1.786v-.866h2.161v-.665c-.839-.119-1.509-.638-1.509-1.286,0-.766.875-1.313,1.974-1.313,1.143,0,1.983.547,1.983,1.313,0,.648-.607,1.131-1.429,1.258v.666a21.887,21.887,0,0,0,2.269-.164Zm-5.109-4.248v-.793h4.564v.793Zm1.09-1.313v-.775h2.447v.775Zm2.242,2.953c0-.383-.473-.611-1.045-.611-.545,0-1.036.228-1.036.611,0,.4.491.629,1.036.629C443.488,1090.505,443.962,1090.268,443.962,1089.876Zm2.063,4.294v-8.141h.956v8.141Z" transform="translate(-392.375 -1085.992)"/><path class="g" d="M250.227,1124.694h.59v1.183l1.109-1.183h.775l-1.178,1.18,1.238,1.69h-.771l-.884-1.253-.289.293v.96h-.59Z" transform="translate(-250.204 -1114.914)"/><path class="g" d="M262.823,1129.322a1.17,1.17,0,0,1-1.632,0,1.317,1.317,0,0,1,0-1.594,1.157,1.157,0,0,1,1.632,0,1.317,1.317,0,0,1,0,1.594Zm-.444-.307a.99.99,0,0,0,0-.983.493.493,0,0,0-.749,0,.985.985,0,0,0,0,.983.491.491,0,0,0,.749,0Z" transform="translate(-258.205 -1116.932)"/><path class="g" d="M272.269,1127.461l.048,0v.569c-.035,0-.066-.007-.093-.008l-.066,0a.46.46,0,0,0-.45.218.849.849,0,0,0-.064.378v1.015h-.559v-2.123h.53v.37a1.171,1.171,0,0,1,.224-.29.609.609,0,0,1,.4-.13Z" transform="translate(-265.806 -1116.983)"/><path class="g" d="M278.152,1127.537a.862.862,0,0,1,.367.314,1.042,1.042,0,0,1,.169.439,2.677,2.677,0,0,1,.018.421h-1.546a.509.509,0,0,0,.222.448.563.563,0,0,0,.306.08.47.47,0,0,0,.308-.1.464.464,0,0,0,.114-.146h.567a.692.692,0,0,1-.206.384,1.032,1.032,0,0,1-.8.309,1.157,1.157,0,0,1-.747-.261,1.029,1.029,0,0,1-.324-.85,1.148,1.148,0,0,1,.292-.846,1.023,1.023,0,0,1,.759-.294A1.211,1.211,0,0,1,278.152,1127.537Zm-.83.48a.576.576,0,0,0-.148.328h.956a.463.463,0,0,0-.148-.335.487.487,0,0,0-.329-.114A.439.439,0,0,0,277.322,1128.016Z" transform="translate(-269.933 -1116.966)"/><path class="g" d="M286.481,1128.342a.876.876,0,0,0,.222-.049.167.167,0,0,0,.119-.158.187.187,0,0,0-.092-.18.579.579,0,0,0-.269-.05.353.353,0,0,0-.282.1.4.4,0,0,0-.079.194h-.535a.811.811,0,0,1,.156-.457.912.912,0,0,1,.759-.281,1.352,1.352,0,0,1,.622.138.53.53,0,0,1,.272.522v.974c0,.067,0,.149,0,.245a.307.307,0,0,0,.033.148.2.2,0,0,0,.082.064v.082h-.6a.624.624,0,0,1-.035-.121c-.007-.038-.012-.081-.016-.129a1.146,1.146,0,0,1-.266.213.807.807,0,0,1-.407.1.7.7,0,0,1-.479-.165.585.585,0,0,1-.189-.466.6.6,0,0,1,.3-.566,1.348,1.348,0,0,1,.49-.136Zm.339.259a.647.647,0,0,1-.107.053.923.923,0,0,1-.149.038l-.126.023a.823.823,0,0,0-.255.076.254.254,0,0,0-.131.236.246.246,0,0,0,.08.205.305.305,0,0,0,.195.063.579.579,0,0,0,.335-.105.445.445,0,0,0,.159-.384Z" transform="translate(-276.586 -1116.983)"/><path class="g" d="M296.593,1127.632a.7.7,0,0,1,.208.572v1.429h-.569v-1.291a.592.592,0,0,0-.044-.257.313.313,0,0,0-.309-.164.384.384,0,0,0-.385.24.827.827,0,0,0-.054.323v1.149h-.555v-2.118h.538v.31a.944.944,0,0,1,.2-.236.7.7,0,0,1,.432-.128A.815.815,0,0,1,296.593,1127.632Z" transform="translate(-283.609 -1116.983)"/><path class="g" d="M310.792,1124.756a.951.951,0,0,1,.489.364,1.28,1.28,0,0,1,.2.464,2.212,2.212,0,0,1,.055.475,1.907,1.907,0,0,1-.23.97,1.037,1.037,0,0,1-.963.535H309.11v-2.87h1.238A1.5,1.5,0,0,1,310.792,1124.756Zm-1.1.436v1.873h.554a.6.6,0,0,0,.593-.419,1.478,1.478,0,0,0,.091-.547,1.345,1.345,0,0,0-.138-.673.581.581,0,0,0-.547-.235Z" transform="translate(-294.25 -1114.914)"/><path class="g" d="M320.956,1125.136h-.563v-.512h.563Zm-.563.253h.563v2.122h-.563Z" transform="translate(-302.69 -1114.862)"/><path class="g" d="M325.172,1128.342a.873.873,0,0,0,.221-.049.167.167,0,0,0,.12-.158.187.187,0,0,0-.092-.18.579.579,0,0,0-.269-.05.354.354,0,0,0-.283.1.4.4,0,0,0-.079.194h-.535a.809.809,0,0,1,.156-.457.911.911,0,0,1,.759-.281,1.351,1.351,0,0,1,.622.138.531.531,0,0,1,.272.522v.974c0,.067,0,.149,0,.245a.31.31,0,0,0,.033.148.2.2,0,0,0,.082.064v.082h-.6a.626.626,0,0,1-.035-.121c-.006-.038-.012-.081-.015-.129a1.154,1.154,0,0,1-.267.213.808.808,0,0,1-.407.1.7.7,0,0,1-.479-.165.585.585,0,0,1-.189-.466.6.6,0,0,1,.3-.566,1.349,1.349,0,0,1,.49-.136Zm.339.259a.647.647,0,0,1-.108.053.924.924,0,0,1-.149.038l-.126.023a.825.825,0,0,0-.255.076.254.254,0,0,0-.131.236.247.247,0,0,0,.08.205.306.306,0,0,0,.195.063.578.578,0,0,0,.335-.105.444.444,0,0,0,.159-.384Z" transform="translate(-305.528 -1116.983)"/><path class="g" d="M335.315,1125.708a1.22,1.22,0,0,1,.238.779,1.362,1.362,0,0,1-.235.82.853.853,0,0,1-1.081.22.848.848,0,0,1-.207-.218v.267h-.547v-2.866h.555v1.02a.815.815,0,0,1,.233-.226.7.7,0,0,1,.384-.1A.793.793,0,0,1,335.315,1125.708Zm-.464,1.293a.789.789,0,0,0,.12-.456,1.012,1.012,0,0,0-.059-.374.41.41,0,0,0-.412-.281.416.416,0,0,0-.418.275,1.021,1.021,0,0,0-.059.378.787.787,0,0,0,.122.452.419.419,0,0,0,.371.179A.385.385,0,0,0,334.851,1127Z" transform="translate(-312.481 -1114.925)"/><path class="g" d="M344.114,1127.537a.862.862,0,0,1,.367.314,1.042,1.042,0,0,1,.169.439,2.752,2.752,0,0,1,.018.421h-1.546a.509.509,0,0,0,.222.448.562.562,0,0,0,.306.08.431.431,0,0,0,.423-.244h.566a.693.693,0,0,1-.206.384,1.032,1.032,0,0,1-.8.309,1.156,1.156,0,0,1-.747-.261,1.03,1.03,0,0,1-.324-.85,1.148,1.148,0,0,1,.293-.846,1.022,1.022,0,0,1,.759-.294A1.212,1.212,0,0,1,344.114,1127.537Zm-.83.48a.574.574,0,0,0-.148.328h.956a.463.463,0,0,0-.148-.335.488.488,0,0,0-.329-.114A.439.439,0,0,0,343.283,1128.016Z" transform="translate(-319.273 -1116.966)"/><path class="g" d="M351.164,1126.376v-.4h.3v-.592h.549v.592h.345v.4h-.345v1.122a.252.252,0,0,0,.033.163.366.366,0,0,0,.2.032h.053l.056,0v.415l-.263.01a.707.707,0,0,1-.537-.136.407.407,0,0,1-.094-.294v-1.307Z" transform="translate(-325.707 -1115.434)"/><path class="g" d="M358.186,1127.537a.862.862,0,0,1,.367.314,1.043,1.043,0,0,1,.169.439,2.717,2.717,0,0,1,.018.421h-1.546a.51.51,0,0,0,.222.448.563.563,0,0,0,.306.08.431.431,0,0,0,.423-.244h.566a.7.7,0,0,1-.206.384,1.032,1.032,0,0,1-.8.309,1.157,1.157,0,0,1-.748-.261,1.029,1.029,0,0,1-.324-.85,1.148,1.148,0,0,1,.292-.846,1.023,1.023,0,0,1,.759-.294A1.211,1.211,0,0,1,358.186,1127.537Zm-.83.48a.576.576,0,0,0-.148.328h.956a.463.463,0,0,0-.148-.335.487.487,0,0,0-.329-.114A.439.439,0,0,0,357.356,1128.016Z" transform="translate(-329.8 -1116.966)"/><path class="g" d="M366.138,1128.927a.37.37,0,0,0,.076.21.518.518,0,0,0,.384.111.587.587,0,0,0,.261-.048.163.163,0,0,0,.019-.288,3.2,3.2,0,0,0-.581-.168,1.2,1.2,0,0,1-.51-.224.484.484,0,0,1-.148-.381.663.663,0,0,1,.231-.506.931.931,0,0,1,.651-.211,1.2,1.2,0,0,1,.649.158.679.679,0,0,1,.288.548H366.9a.33.33,0,0,0-.061-.169.381.381,0,0,0-.312-.113.45.45,0,0,0-.258.056.163.163,0,0,0-.077.132.145.145,0,0,0,.082.138,3.565,3.565,0,0,0,.58.154,1.063,1.063,0,0,1,.5.236.535.535,0,0,1,.164.4.644.644,0,0,1-.235.515,1.414,1.414,0,0,1-1.467-.012.687.687,0,0,1-.239-.538Z" transform="translate(-336.486 -1116.955)"/><path class="g" d="M379.114,1124.694h.679l1.016,2.87h-.65l-.189-.59h-1.057l-.195.59h-.627Zm-.04,1.786h.735l-.362-1.13Z" transform="translate(-345.847 -1114.914)"/><path class="g" d="M390.187,1128.927a.372.372,0,0,0,.076.21.518.518,0,0,0,.384.111.587.587,0,0,0,.261-.048.163.163,0,0,0,.019-.288,3.2,3.2,0,0,0-.581-.168,1.2,1.2,0,0,1-.509-.224.485.485,0,0,1-.148-.381.662.662,0,0,1,.231-.506.93.93,0,0,1,.651-.211,1.2,1.2,0,0,1,.649.158.68.68,0,0,1,.288.548h-.555a.328.328,0,0,0-.06-.169.381.381,0,0,0-.312-.113.45.45,0,0,0-.259.056.163.163,0,0,0-.077.132.145.145,0,0,0,.082.138,3.568,3.568,0,0,0,.58.154,1.062,1.062,0,0,1,.5.236.535.535,0,0,1,.164.4.644.644,0,0,1-.235.515,1.414,1.414,0,0,1-1.467-.012.686.686,0,0,1-.239-.538Z" transform="translate(-354.475 -1116.955)"/><path class="g" d="M398.989,1128.927a.372.372,0,0,0,.076.21.517.517,0,0,0,.384.111.585.585,0,0,0,.261-.048.163.163,0,0,0,.019-.288,3.2,3.2,0,0,0-.581-.168,1.2,1.2,0,0,1-.509-.224.485.485,0,0,1-.148-.381.662.662,0,0,1,.231-.506.93.93,0,0,1,.651-.211,1.2,1.2,0,0,1,.649.158.679.679,0,0,1,.288.548h-.555a.328.328,0,0,0-.06-.169.381.381,0,0,0-.312-.113.451.451,0,0,0-.259.056.162.162,0,0,0-.077.132.145.145,0,0,0,.082.138,3.559,3.559,0,0,0,.58.154,1.06,1.06,0,0,1,.5.236.534.534,0,0,1,.164.4.645.645,0,0,1-.235.515,1.414,1.414,0,0,1-1.467-.012.686.686,0,0,1-.239-.538Z" transform="translate(-361.059 -1116.955)"/><path class="g" d="M409.135,1129.322a1.169,1.169,0,0,1-1.632,0,1.316,1.316,0,0,1,0-1.594,1.157,1.157,0,0,1,1.632,0,1.316,1.316,0,0,1,0,1.594Zm-.444-.307a.991.991,0,0,0,0-.983.493.493,0,0,0-.749,0,.983.983,0,0,0,0,.983.491.491,0,0,0,.749,0Z" transform="translate(-367.649 -1116.932)"/><path class="g" d="M418.332,1128.272a.5.5,0,0,0-.08-.214.336.336,0,0,0-.291-.128.383.383,0,0,0-.385.278,1.152,1.152,0,0,0-.055.392,1.058,1.058,0,0,0,.055.375.371.371,0,0,0,.375.265.331.331,0,0,0,.277-.105.525.525,0,0,0,.1-.273h.567a.929.929,0,0,1-.183.479.891.891,0,0,1-.774.364.906.906,0,0,1-.754-.3,1.227,1.227,0,0,1-.242-.788,1.243,1.243,0,0,1,.267-.85.93.93,0,0,1,.737-.3,1.111,1.111,0,0,1,.654.179.834.834,0,0,1,.3.633Z" transform="translate(-374.909 -1116.983)"/><path class="g" d="M426.816,1125.136h-.563v-.512h.563Zm-.563.253h.563v2.122h-.563Z" transform="translate(-381.874 -1114.862)"/><path class="g" d="M431.032,1128.342a.874.874,0,0,0,.222-.049.167.167,0,0,0,.12-.158.187.187,0,0,0-.092-.18.579.579,0,0,0-.269-.05.353.353,0,0,0-.282.1.4.4,0,0,0-.079.194h-.535a.809.809,0,0,1,.156-.457.911.911,0,0,1,.759-.281,1.351,1.351,0,0,1,.622.138.53.53,0,0,1,.272.522v.974c0,.067,0,.149,0,.245a.3.3,0,0,0,.033.148.2.2,0,0,0,.082.064v.082h-.6a.622.622,0,0,1-.035-.121c-.007-.038-.012-.081-.016-.129a1.147,1.147,0,0,1-.267.213.807.807,0,0,1-.407.1.7.7,0,0,1-.479-.165.585.585,0,0,1-.189-.466.6.6,0,0,1,.3-.566,1.351,1.351,0,0,1,.49-.136Zm.339.259a.651.651,0,0,1-.108.053.929.929,0,0,1-.149.038l-.127.023a.828.828,0,0,0-.255.076.254.254,0,0,0-.131.236.247.247,0,0,0,.08.205.306.306,0,0,0,.2.063.578.578,0,0,0,.335-.105.446.446,0,0,0,.159-.384Z" transform="translate(-384.712 -1116.983)"/><path class="g" d="M438.555,1126.376v-.4h.3v-.592h.549v.592h.345v.4H439.4v1.122a.251.251,0,0,0,.033.163.366.366,0,0,0,.2.032h.053l.055,0v.415l-.263.01a.706.706,0,0,1-.537-.136.405.405,0,0,1-.094-.294v-1.307Z" transform="translate(-391.076 -1115.434)"/><path class="g" d="M445.285,1125.136h-.563v-.512h.563Zm-.563.253h.563v2.122h-.563Z" transform="translate(-395.689 -1114.862)"/><path class="g" d="M450.469,1129.322a1.169,1.169,0,0,1-1.632,0,1.316,1.316,0,0,1,0-1.594,1.157,1.157,0,0,1,1.632,0,1.316,1.316,0,0,1,0,1.594Zm-.444-.307a.992.992,0,0,0,0-.983.493.493,0,0,0-.749,0,.983.983,0,0,0,0,.983.491.491,0,0,0,.749,0Z" transform="translate(-398.567 -1116.932)"/><path class="g" d="M460.477,1127.632a.7.7,0,0,1,.208.572v1.429h-.569v-1.291a.587.587,0,0,0-.045-.257.312.312,0,0,0-.309-.164.384.384,0,0,0-.385.24.832.832,0,0,0-.054.323v1.149h-.555v-2.118h.538v.31a.943.943,0,0,1,.2-.236.7.7,0,0,1,.432-.128A.815.815,0,0,1,460.477,1127.632Z" transform="translate(-406.197 -1116.983)"/></g></g></svg>