<svg xmlns="http://www.w3.org/2000/svg" width="138" height="46.488" viewBox="0 0 138 46.488"><defs><style>.a{fill:#4a859f;}</style></defs><g transform="translate(-5777.744 1816.005)"><path class="a" d="M6557.436-1808.864c1.2-.385,1.115-1.364,2.781-1.965,1.321-.478,3.09-.8,4.168-.117.777,1.149.281,4.232-.369,5.54-1.5,3.031-7.926,8.55-7.414,11.707,3.034,1.571,4.778-.608,8.493-2.842a41.208,41.208,0,0,0,3.853-2.328c1.234-.937,2.405-2.548,3.46-3.018,1.085,2.11,1.625,2.8,3.693,3.764,1.57-.4,4.966-3.545,5.4-4.869,1.225-3.757-2.911-9.29-6.208-8.684-2.879.529-.012,4.9-3.284,6.542a9.154,9.154,0,0,1-3.925,1.371c.587-2.2,1.994-3.519,1.48-6.8-.865-5.52-5.254-6.979-9.74-3.734-1.648,1.193-3.652,2.362-2.386,5.434m18.408,6.37c.12-1.382.468-4.916,1.18-5.86,1.414.493,1.532,1.647,1.433,3.339-.108,1.871-.671,2.435-2.613,2.521" transform="translate(-665.976 0)"/><path class="a" d="M6389.35-1762.667c1.731.273,1.561-1.1,3.041-2.11a7.7,7.7,0,0,1,4.08-1.366c.16,2.131-2.626,7.118-3.857,9.348-1.307,2.365-3.873,6.425-3.452,9.578,2.472,1.317,3.359.606,5.177-.666,1.4-.981,3.051-1.985,4.166-2.947,1.794-1.547,5.249-6.258,6.641-7.222.6,1.005.121,1.9,1.226,3.04,3.368,3.472,6.721-2.211,6.883-2.671.692-1.976.265-5.723-.79-6.89a10.413,10.413,0,0,0-5.309-2.385c-.214,1.477.172,1.8-.031,2.777-.032.149-.594,2.03-.708,2.367a7.344,7.344,0,0,1-2.934,3.269c-1.738,1.324-5.547,3.954-7.589,4.686.381-1.256,1.03-1.679,1.769-3.108,1.762-3.419,3.434-6.988.789-10.872-3.234-4.747-11.083,1.728-9.1,5.173m19.576,4.821a8.7,8.7,0,0,1,.834-4.275c.763,1,.614,1.961.553,3.473Z" transform="translate(-522.713 -39.75)"/><path class="a" d="M5777.771-1686.481c-.169.968.438.6,1.415.559l5.018-3.436c1.852-1.159,3.481-2.321,5.119-3.542,1.722-1.284,3.712-1.957,5.45-3.192,1.654-1.174,3.1-2.437,4.7-3.652,9.183-6.939,4.342-5.116,11.48-5.764,2.111-.191,5.891-.431,6.14-2.514.349-2.919-3.616-2.111-5.231-2.322a36.766,36.766,0,0,0,3.2-3.193c1.376-1.577,2.562-3.267,1.184-4.343-1.666-1.152-4.461,2.08-5.352,2.938-3.259,3.134-7.172,6.134-9.551,8.385l-4.626,4.029c-2.962,2.9-6.359,5.473-9.5,8.126l-7.258,6.04c-.869.789-1.229,1.659-2.19,1.88" transform="translate(0 -83.697)"/><path class="a" d="M6074.295-1763.7c-.334-10.147,2.18-8.705,2.057-12.3-1.635-.561-1.505-.446-2.664.3-2.219,1.431-3.513,4-4.449,6.372a10.537,10.537,0,0,0-.525,5.989c.894,3.385,1.922,3.1,3.1,4.045-.36,1.809-2.561,3.391-3.23,5.8-.609,2.183-.5,6.129,1.982,6.255,1.7.086,4.443-2.236,5.113-3.5,1.406-2.659-1.836-3.009-3.07-3.746-.559-.334-.2-.064-.556-.453,3.634-4.969,3.185-2.153,4.825-4.5a26.432,26.432,0,0,1,2.193-2.442c.652-.763,1.8-1.487,1.649-3-1.768-1.022-4.554.994-6.428,1.188m-3.376,11.966c1.144-.1.976-.228,1.828.214a2.926,2.926,0,0,1-1.979,1.641Z" transform="translate(-248.432 -33.91)"/><path class="a" d="M6278.234-1772.249c.607-1.487,2.36-2.251,3.127-3.933,1.424-3.121-1.968-5.556.755-12.918.739-2,1.674-4.136-.983-4.71-1.095.7-1.9,2.309-2.683,3.8-1.109,2.119-.675,3.339-1.224,5.34l-2.667,1.312c.1-.921.615-2.313.131-3.031-2.06-3.062-6.118,6.393-4.333,9.067a4.552,4.552,0,0,0,4.052,2.254l3.577-5.624,1.6,3.67c-.894,1.768-7.935,7.621-5.518,11.147.648.588.023.584,1.427.354a4.416,4.416,0,0,0,1.137-.482c2.417-1.358,4.172-2.963,4.083-5.971Zm-2.631,4.536a3.586,3.586,0,0,1,1.219-2.771l2.144.054c-.357,1.2-2.171,2.219-3.363,2.717" transform="translate(-420.854 -18.979)"/><path class="a" d="M6147.6-1740.478c.883-1.061,1.9-1.912,2.9-3.094,1.092-1.289,1.57-2.439,2.585-3.591.521-.6,1.49-1.05.838-2.135-.574-.955-1.693-.571-2.408-.111l-15.941,14.615.439,1.566c3.1-.013,3.886-2.4,8.117-2.808a38.726,38.726,0,0,1,4.889.224c4.04.091,3.564.12,4.1-1.133,1.151-2.628-3.152-3.232-5.521-3.531" transform="translate(-305.978 -56.534)"/></g></svg>