<svg xmlns="http://www.w3.org/2000/svg" xmlns:xlink="http://www.w3.org/1999/xlink" width="138" height="51.34" viewBox="0 0 138 51.34"><defs><style>.a{fill:#2ba049;}.b{fill:#00833e;}.c{fill:#295135;}.d{fill:url(#a);}.e{fill:none;}.f{fill:url(#b);}.g{fill:#4c4948;}</style><linearGradient id="a" x1="-1.201" y1="0.455" x2="-0.648" y2="0.706" gradientUnits="objectBoundingBox"><stop offset="0" stop-color="#295135"/><stop offset="0.199" stop-color="#265435" stop-opacity="0.937"/><stop offset="0.441" stop-color="#1e5d37" stop-opacity="0.753"/><stop offset="0.706" stop-color="#126c39" stop-opacity="0.447"/><stop offset="0.986" stop-color="#00813d" stop-opacity="0.024"/><stop offset="1" stop-color="#00833e" stop-opacity="0"/></linearGradient><linearGradient id="b" x1="0.117" y1="0.441" x2="0.713" y2="0.602" gradientUnits="objectBoundingBox"><stop offset="0" stop-color="#295135"/><stop offset="0.256" stop-color="#275335" stop-opacity="0.961"/><stop offset="0.467" stop-color="#225936" stop-opacity="0.835"/><stop offset="0.662" stop-color="#196338" stop-opacity="0.62"/><stop offset="0.846" stop-color="#0d723b" stop-opacity="0.325"/><stop offset="1" stop-color="#00833e" stop-opacity="0"/></linearGradient></defs><g transform="translate(-129.519 -604.643)"><g transform="translate(129.519 604.643)"><path class="a" d="M181.951,633.139" transform="translate(-160.501 -621.481)"/><path class="b" d="M139.929,618.446l8.536-13.535h-6.032l-7.73,12.411h-.083V604.643h-5.1V632.5h5.1V619.925h.083l11.132,12.429-.026-7.335Z" transform="translate(-129.519 -604.643)"/><path class="c" d="M187.472,647.586a9.406,9.406,0,0,0-1.092-2.628,8.009,8.009,0,0,0-1.753-2.006,9.39,9.39,0,0,0-2.3-1.367,11.46,11.46,0,0,0-2.628-.708,21.259,21.259,0,0,0-3.162-.216l-6.582-.042a.653.653,0,0,0-.659.655l.018,5,.026,7.335.038,10.962a.653.653,0,0,0,.653.651h0a.652.652,0,0,0,.65-.655l-.08-22.638,3.825.036h2.107a19.894,19.894,0,0,1,2.966.2,10.121,10.121,0,0,1,2.324.623,8.056,8.056,0,0,1,1.977,1.175,6.714,6.714,0,0,1,1.467,1.68,8.147,8.147,0,0,1,.937,2.264,11.87,11.87,0,0,1,.331,2.92,11.214,11.214,0,0,1-1,5.075,6.687,6.687,0,0,1-2.881,2.924,13.85,13.85,0,0,1-6.256,1.154.653.653,0,0,0,0,1.305,15.088,15.088,0,0,0,6.862-1.3A7.968,7.968,0,0,0,186.7,656.5a12.471,12.471,0,0,0,1.145-5.668A13.144,13.144,0,0,0,187.472,647.586Z" transform="translate(-153.022 -625.902)"/><path class="d" d="M150.847,614.446l2.8,5.063-2.978,4.73-2.462-2.617a2.335,2.335,0,0,1-.083-2.814Z" transform="translate(-140.263 -610.435)"/><path class="e" d="M220.706,689.258h6.976l-3.47-9.253Z" transform="translate(-183.401 -649.174)"/><path class="c" d="M193.793,643.589a16.854,16.854,0,0,0-.554-3.733,13.48,13.48,0,0,0-1.724-3.861,12.7,12.7,0,0,0-2.836-3.247,13.683,13.683,0,0,0-3.863-2.01,12.821,12.821,0,0,0-1.625-.451c-.574-.121-1.174-.225-1.782-.309s-1.249-.15-1.891-.192-1.285-.064-1.906-.064h-5.875a.653.653,0,0,0,0,1.305h5.875c.592,0,1.205.02,1.821.061s1.215.1,1.8.182,1.147.179,1.692.294a11.364,11.364,0,0,1,1.467.407,12.409,12.409,0,0,1,3.5,1.818,11.955,11.955,0,0,1,2.532,2.923,12.178,12.178,0,0,1,1.555,3.488,15.541,15.541,0,0,1,.509,3.411l.009-.023Z" transform="translate(-154.081 -619.462)"/><path class="c" d="M190.589,667.189a16.824,16.824,0,0,1-3.625.96,30.081,30.081,0,0,1-4.64.325h-.772V648.421a.653.653,0,1,0-1.305,0v20.621c0,.014,0,.029,0,.042s0,.028,0,.043a.652.652,0,0,0,.653.652h1.425a31.44,31.44,0,0,0,4.844-.341,18.133,18.133,0,0,0,3.905-1.038,14.144,14.144,0,0,0,1.5-.711l.821-2.07A11.927,11.927,0,0,1,190.589,667.189Z" transform="translate(-159.494 -630.125)"/><path class="b" d="M212.489,663.618h-4.664l-.009.023-4.5,11.345-.821,2.07-5.467,13.775h5.422l2.7-7.12h10.094l2.67,7.12h5.379Zm-5.776,15.957,3.506-9.253,3.47,9.253Z" transform="translate(-169.408 -639.491)"/><path class="f" d="M231.546,663.618l-2.269,6.7,1.233,3.257,4.008-2.467Z" transform="translate(-188.465 -639.491)"/></g><g transform="translate(178.864 617.882)"><path class="g" d="M255.444,646.823a20.608,20.608,0,0,1-3.19.31c-.362.015-2.1.015-2.117.015v-9.162h4.568v1.362H251.66v6.379l1.276-.015a19.148,19.148,0,0,0,2.509-.281Zm3.451,3.508v-7.179h-1.407v6.571H256V637.35h1.494v4.2H258.9v-4.44h1.494v13.217Z" transform="translate(-250.137 -637.069)"/><path class="g" d="M280.7,640.35v-1.273h7.613v1.273Zm3.8.577c2.03,0,3.393,1.006,3.393,2.294,0,1.243-1.377,2.25-3.408,2.25-1.914,0-3.379-1.006-3.379-2.264S282.551,640.927,284.494,640.927Zm-2.03-2.694v-1.229h4.017v1.229Zm.015,11.8v-3.745h1.609v2.353h7.323v1.392Zm2.03-5.788c1,0,1.755-.34,1.755-1.036s-.754-1.065-1.755-1.065-1.813.385-1.813,1.051C282.7,643.9,283.494,644.242,284.509,644.242Zm6.511-7.178v3.863h1.725v1.45H291.02v4.485h-1.552v-9.8Z" transform="translate(-268.194 -637.005)"/><path class="g" d="M321.115,643.13a27.177,27.177,0,0,1-5.075.488c-.392,0-2.6.015-2.625.015v-5.95h6.192v1.377h-4.655v3.182l1.784-.015a27.956,27.956,0,0,0,4.379-.444Zm-2.2,1.82c3.016,0,4.626,1.243,4.626,2.842s-1.609,2.8-4.626,2.8-4.611-1.2-4.611-2.812S315.895,644.95,318.911,644.95Zm.015,4.366c1.74,0,2.929-.607,2.929-1.525,0-.947-1.175-1.525-2.929-1.525s-2.973.578-2.973,1.525C315.953,648.709,317.156,649.316,318.926,649.316Zm4.335-12.166V639.7h1.726V641.1h-1.726v3.819H321.71V637.15Z" transform="translate(-287.528 -637.091)"/><path class="g" d="M343.335,649.543v-1.391h3.277v-3.464H344.8v-6.453h1.566V643.3h7.9v1.391h-1.827v3.464h3.016v1.391Zm7.555-4.855h-2.726v3.464h2.726Z" transform="translate(-305.207 -637.732)"/><path class="g" d="M386.143,645.276v-2.324h-2.451V644.2h-6.148V637.55H379.1v2.028h3.06V637.55h1.537v1.391h2.451V637.15h1.551v8.126Zm-2.944.044c3.074,0,4.7,1.125,4.7,2.62s-1.624,2.62-4.7,2.62c-3.045,0-4.684-1.14-4.684-2.62S380.14,645.32,383.2,645.32Zm-1.044-4.4H379.1v1.895h3.06Zm1.059,8.347c1.827,0,3.016-.548,3.016-1.332,0-.829-1.2-1.347-3.031-1.347s-3.016.5-3.016,1.332C380.183,648.709,381.372,649.272,383.214,649.272Zm2.929-8.984h-2.451v1.317h2.451Z" transform="translate(-325.421 -637.091)"/><path class="g" d="M408.314,640.291v-1.258h7.613v1.258Zm3.828.563c2.074,0,3.364.917,3.364,2.146s-1.348,2.176-3.393,2.176c-1.871,0-3.379-.962-3.379-2.161C408.735,641.771,410.156,640.853,412.142,640.853Zm4.887,9.488v-2.872h-7.265v-1.347h8.875v4.219Zm-6.946-12.108v-1.229H414.1v1.229Zm2.045,5.773c1.029,0,1.725-.37,1.725-1.007s-.71-.992-1.725-.992c-.972,0-1.755.355-1.755.992C410.373,643.651,411.142,644.006,412.128,644.006Zm6.511-2.013v3.567h-1.551v-8.5h1.551v3.464h1.711v1.465Z" transform="translate(-343.603 -637.005)"/><path class="g" d="M449.137,647.629a50.978,50.978,0,0,1-5.945.34h-2.9v-1.406H443.8v-1.08c-1.363-.193-2.451-1.036-2.451-2.087,0-1.243,1.421-2.131,3.2-2.131,1.856,0,3.219.888,3.219,2.131,0,1.051-.986,1.835-2.32,2.043v1.08a35.476,35.476,0,0,0,3.684-.267Zm-8.295-6.9v-1.287h7.41v1.287Zm1.769-2.131v-1.258h3.973V638.6Zm3.64,4.8c0-.622-.769-.992-1.7-.992-.884,0-1.682.37-1.682.992,0,.651.8,1.021,1.682,1.021C445.482,644.417,446.251,644.032,446.251,643.4Zm3.35,6.972V637.15h1.552v13.217Z" transform="translate(-362.498 -637.091)"/><path class="g" d="M250.227,675.815h.958v1.92l1.8-1.92h1.258l-1.912,1.917,2.01,2.743H253.09l-1.436-2.034-.469.476v1.558h-.958Z" transform="translate(-250.19 -659.938)"/><path class="g" d="M264.008,681.648a1.9,1.9,0,0,1-2.649,0,2.138,2.138,0,0,1,0-2.588,1.879,1.879,0,0,1,2.649,0,2.138,2.138,0,0,1,0,2.588Zm-.721-.5a1.607,1.607,0,0,0,0-1.6.8.8,0,0,0-1.216,0,1.6,1.6,0,0,0,0,1.6.8.8,0,0,0,1.216,0Z" transform="translate(-256.51 -661.532)"/><path class="g" d="M273.008,678.584l.077,0v.923c-.057-.006-.108-.011-.152-.013l-.108,0a.747.747,0,0,0-.73.354,1.377,1.377,0,0,0-.1.613v1.647h-.907v-3.446h.86v.6a1.9,1.9,0,0,1,.364-.471.989.989,0,0,1,.657-.212Z" transform="translate(-262.514 -661.573)"/><path class="g" d="M279.119,678.721a1.4,1.4,0,0,1,.6.51,1.689,1.689,0,0,1,.275.712,4.355,4.355,0,0,1,.03.684h-2.51a.827.827,0,0,0,.36.727.914.914,0,0,0,.5.13.761.761,0,0,0,.5-.158.751.751,0,0,0,.185-.237h.92a1.124,1.124,0,0,1-.334.623,1.675,1.675,0,0,1-1.3.5,1.878,1.878,0,0,1-1.213-.424,1.67,1.67,0,0,1-.526-1.38,1.865,1.865,0,0,1,.475-1.373,1.66,1.66,0,0,1,1.232-.478A1.958,1.958,0,0,1,279.119,678.721Zm-1.348.778a.937.937,0,0,0-.24.533h1.552a.752.752,0,0,0-.24-.544.789.789,0,0,0-.534-.186A.714.714,0,0,0,277.771,679.5Z" transform="translate(-265.775 -661.559)"/><path class="g" d="M287.095,680.014a1.443,1.443,0,0,0,.36-.079.271.271,0,0,0,.194-.256.3.3,0,0,0-.149-.292.938.938,0,0,0-.437-.081.573.573,0,0,0-.458.158.651.651,0,0,0-.128.316h-.869a1.317,1.317,0,0,1,.254-.743,1.481,1.481,0,0,1,1.232-.455,2.2,2.2,0,0,1,1.01.225.86.86,0,0,1,.441.847v1.58q0,.164.007.4a.5.5,0,0,0,.054.241.326.326,0,0,0,.133.1v.133h-.98a1.014,1.014,0,0,1-.057-.2c-.011-.061-.019-.131-.025-.209a1.865,1.865,0,0,1-.432.345,1.31,1.31,0,0,1-.662.167,1.14,1.14,0,0,1-.777-.268.949.949,0,0,1-.307-.757.98.98,0,0,1,.494-.92,2.187,2.187,0,0,1,.8-.221Zm.551.42a.989.989,0,0,1-.174.087,1.464,1.464,0,0,1-.242.062l-.2.038a1.334,1.334,0,0,0-.414.124.411.411,0,0,0-.213.383.4.4,0,0,0,.13.333.5.5,0,0,0,.316.1.943.943,0,0,0,.544-.171.723.723,0,0,0,.258-.623Z" transform="translate(-271.03 -661.573)"/><path class="g" d="M297.658,678.862a1.141,1.141,0,0,1,.338.928v2.32h-.923v-2.1A.961.961,0,0,0,297,679.6a.507.507,0,0,0-.5-.266.622.622,0,0,0-.625.389,1.347,1.347,0,0,0-.088.525v1.865h-.9v-3.439h.873v.5a1.538,1.538,0,0,1,.327-.382,1.134,1.134,0,0,1,.7-.209A1.322,1.322,0,0,1,297.658,678.862Z" transform="translate(-276.578 -661.573)"/><path class="g" d="M311.841,675.917a1.542,1.542,0,0,1,.794.591,2.078,2.078,0,0,1,.332.752,3.594,3.594,0,0,1,.089.771,3.1,3.1,0,0,1-.374,1.575,1.684,1.684,0,0,1-1.563.869H309.11v-4.66h2.009A2.454,2.454,0,0,1,311.841,675.917Zm-1.785.708v3.041h.9a.972.972,0,0,0,.963-.68,2.4,2.4,0,0,0,.149-.888,2.183,2.183,0,0,0-.223-1.092.942.942,0,0,0-.888-.381Z" transform="translate(-284.984 -659.938)"/><path class="g" d="M321.307,676.577h-.914v-.831h.914Zm-.914.411h.914v3.446h-.914Z" transform="translate(-291.651 -659.897)"/><path class="g" d="M325.786,680.014a1.438,1.438,0,0,0,.36-.079.271.271,0,0,0,.194-.256.3.3,0,0,0-.149-.292.939.939,0,0,0-.437-.081.574.574,0,0,0-.459.158.651.651,0,0,0-.128.316H324.3a1.314,1.314,0,0,1,.254-.743,1.48,1.48,0,0,1,1.232-.455,2.194,2.194,0,0,1,1.01.225.861.861,0,0,1,.441.847v1.58q0,.164.006.4a.507.507,0,0,0,.054.241.327.327,0,0,0,.133.1v.133h-.98a1.015,1.015,0,0,1-.057-.2c-.01-.061-.019-.131-.025-.209a1.876,1.876,0,0,1-.433.345,1.312,1.312,0,0,1-.661.167,1.141,1.141,0,0,1-.778-.268.949.949,0,0,1-.307-.757.981.981,0,0,1,.494-.92,2.189,2.189,0,0,1,.8-.221Zm.551.42a.992.992,0,0,1-.175.087,1.469,1.469,0,0,1-.242.062l-.205.038a1.337,1.337,0,0,0-.414.124.411.411,0,0,0-.213.383.4.4,0,0,0,.13.333.5.5,0,0,0,.316.1.942.942,0,0,0,.544-.171.722.722,0,0,0,.259-.623Z" transform="translate(-293.893 -661.573)"/><path class="g" d="M336.457,677.453a1.981,1.981,0,0,1,.387,1.265,2.214,2.214,0,0,1-.381,1.331,1.385,1.385,0,0,1-1.754.357,1.373,1.373,0,0,1-.337-.354v.433h-.889v-4.654h.9v1.656a1.321,1.321,0,0,1,.378-.367,1.134,1.134,0,0,1,.624-.158A1.288,1.288,0,0,1,336.457,677.453Zm-.753,2.1a1.281,1.281,0,0,0,.195-.74,1.643,1.643,0,0,0-.1-.607.665.665,0,0,0-.669-.455.676.676,0,0,0-.679.445,1.66,1.66,0,0,0-.1.613,1.276,1.276,0,0,0,.2.734.679.679,0,0,0,.6.291A.625.625,0,0,0,335.7,679.552Z" transform="translate(-299.386 -659.947)"/><path class="g" d="M345.081,678.721a1.4,1.4,0,0,1,.6.51,1.689,1.689,0,0,1,.275.712,4.47,4.47,0,0,1,.029.684h-2.51a.827.827,0,0,0,.36.727.912.912,0,0,0,.5.13.7.7,0,0,0,.686-.4h.92a1.127,1.127,0,0,1-.334.623,1.676,1.676,0,0,1-1.3.5,1.877,1.877,0,0,1-1.213-.424,1.671,1.671,0,0,1-.526-1.38,1.865,1.865,0,0,1,.475-1.373,1.659,1.659,0,0,1,1.232-.478A1.958,1.958,0,0,1,345.081,678.721Zm-1.348.778a.934.934,0,0,0-.24.533h1.553a.752.752,0,0,0-.24-.544.79.79,0,0,0-.535-.186A.714.714,0,0,0,343.733,679.5Z" transform="translate(-304.751 -661.559)"/><path class="g" d="M351.164,678.114v-.642h.481v-.961h.891v.961h.56v.642h-.56v1.821a.408.408,0,0,0,.054.264.594.594,0,0,0,.329.052h.087l.09,0v.673l-.427.016a1.145,1.145,0,0,1-.873-.221.66.66,0,0,1-.152-.477v-2.121Z" transform="translate(-309.833 -660.349)"/><path class="g" d="M359.153,678.721a1.4,1.4,0,0,1,.6.51,1.689,1.689,0,0,1,.275.712,4.422,4.422,0,0,1,.029.684h-2.51a.829.829,0,0,0,.36.727.914.914,0,0,0,.5.13.7.7,0,0,0,.686-.4h.92a1.128,1.128,0,0,1-.334.623,1.677,1.677,0,0,1-1.3.5,1.878,1.878,0,0,1-1.214-.424,1.67,1.67,0,0,1-.526-1.38,1.865,1.865,0,0,1,.475-1.373,1.66,1.66,0,0,1,1.232-.478A1.957,1.957,0,0,1,359.153,678.721Zm-1.348.778a.937.937,0,0,0-.24.533h1.553a.752.752,0,0,0-.24-.544.789.789,0,0,0-.534-.186A.715.715,0,0,0,357.805,679.5Z" transform="translate(-313.067 -661.559)"/><path class="g" d="M366.489,680.988a.6.6,0,0,0,.124.342.842.842,0,0,0,.623.18.952.952,0,0,0,.424-.079.265.265,0,0,0,.031-.468,5.143,5.143,0,0,0-.943-.272,1.949,1.949,0,0,1-.827-.364.786.786,0,0,1-.241-.619,1.075,1.075,0,0,1,.376-.821,1.51,1.51,0,0,1,1.057-.343,1.943,1.943,0,0,1,1.053.257,1.1,1.1,0,0,1,.468.89h-.9a.534.534,0,0,0-.1-.275.619.619,0,0,0-.507-.184.731.731,0,0,0-.42.092.264.264,0,0,0-.125.215.235.235,0,0,0,.133.224,5.725,5.725,0,0,0,.941.25,1.726,1.726,0,0,1,.807.383.869.869,0,0,1,.266.648,1.047,1.047,0,0,1-.382.836,1.8,1.8,0,0,1-1.18.324,1.777,1.777,0,0,1-1.2-.343,1.114,1.114,0,0,1-.388-.874Z" transform="translate(-318.349 -661.55)"/><path class="g" d="M379.752,675.815h1.1l1.649,4.66h-1.056l-.308-.958h-1.716l-.316.958h-1.019Zm-.064,2.9h1.193l-.588-1.833Z" transform="translate(-325.743 -659.938)"/><path class="g" d="M390.538,680.988a.6.6,0,0,0,.124.342.841.841,0,0,0,.623.18.952.952,0,0,0,.424-.079.265.265,0,0,0,.031-.468,5.144,5.144,0,0,0-.943-.272,1.947,1.947,0,0,1-.827-.364.786.786,0,0,1-.241-.619,1.074,1.074,0,0,1,.376-.821,1.51,1.51,0,0,1,1.057-.343,1.944,1.944,0,0,1,1.053.257,1.1,1.1,0,0,1,.468.89h-.9a.53.53,0,0,0-.1-.275.619.619,0,0,0-.507-.184.731.731,0,0,0-.42.092.264.264,0,0,0-.125.215.235.235,0,0,0,.133.224,5.724,5.724,0,0,0,.941.25,1.725,1.725,0,0,1,.807.383.869.869,0,0,1,.266.648,1.046,1.046,0,0,1-.382.836,1.8,1.8,0,0,1-1.179.324,1.776,1.776,0,0,1-1.2-.343,1.113,1.113,0,0,1-.388-.874Z" transform="translate(-332.559 -661.55)"/><path class="g" d="M399.34,680.988a.6.6,0,0,0,.124.342.84.84,0,0,0,.623.18.95.95,0,0,0,.424-.079.265.265,0,0,0,.031-.468,5.144,5.144,0,0,0-.943-.272,1.947,1.947,0,0,1-.827-.364.786.786,0,0,1-.241-.619,1.074,1.074,0,0,1,.376-.821,1.51,1.51,0,0,1,1.057-.343,1.944,1.944,0,0,1,1.053.257,1.1,1.1,0,0,1,.467.89h-.9a.53.53,0,0,0-.1-.275.619.619,0,0,0-.507-.184.733.733,0,0,0-.42.092.263.263,0,0,0-.125.215.235.235,0,0,0,.133.224,5.71,5.71,0,0,0,.941.25,1.722,1.722,0,0,1,.807.383.868.868,0,0,1,.266.648,1.047,1.047,0,0,1-.382.836,1.8,1.8,0,0,1-1.18.324,1.775,1.775,0,0,1-1.2-.343,1.113,1.113,0,0,1-.388-.874Z" transform="translate(-337.76 -661.55)"/><path class="g" d="M410.32,681.648a1.9,1.9,0,0,1-2.649,0,2.137,2.137,0,0,1,0-2.588,1.878,1.878,0,0,1,2.649,0,2.137,2.137,0,0,1,0,2.588Zm-.72-.5a1.61,1.61,0,0,0,0-1.6.8.8,0,0,0-1.215,0,1.6,1.6,0,0,0,0,1.6.8.8,0,0,0,1.215,0Z" transform="translate(-342.965 -661.532)"/><path class="g" d="M419.2,679.9a.811.811,0,0,0-.13-.348.546.546,0,0,0-.473-.209.622.622,0,0,0-.624.452,1.871,1.871,0,0,0-.089.637,1.721,1.721,0,0,0,.089.609.6.6,0,0,0,.608.43.537.537,0,0,0,.45-.171.852.852,0,0,0,.162-.443h.92a1.51,1.51,0,0,1-.3.778,1.447,1.447,0,0,1-1.256.591,1.471,1.471,0,0,1-1.225-.493,1.993,1.993,0,0,1-.392-1.279,2.019,2.019,0,0,1,.434-1.379,1.509,1.509,0,0,1,1.2-.493,1.8,1.8,0,0,1,1.062.291,1.353,1.353,0,0,1,.489,1.028Z" transform="translate(-348.701 -661.573)"/><path class="g" d="M427.167,676.577h-.914v-.831h.914Zm-.914.411h.914v3.446h-.914Z" transform="translate(-354.203 -659.897)"/><path class="g" d="M431.646,680.014a1.438,1.438,0,0,0,.36-.079.272.272,0,0,0,.195-.256.3.3,0,0,0-.149-.292.938.938,0,0,0-.437-.081.574.574,0,0,0-.458.158.651.651,0,0,0-.128.316h-.869a1.315,1.315,0,0,1,.254-.743,1.48,1.48,0,0,1,1.232-.455,2.194,2.194,0,0,1,1.01.225.86.86,0,0,1,.441.847v1.58q0,.164.007.4a.5.5,0,0,0,.054.241.324.324,0,0,0,.133.1v.133h-.98a1.014,1.014,0,0,1-.057-.2c-.011-.061-.019-.131-.025-.209a1.867,1.867,0,0,1-.433.345,1.31,1.31,0,0,1-.661.167,1.14,1.14,0,0,1-.777-.268.949.949,0,0,1-.307-.757.981.981,0,0,1,.493-.92,2.192,2.192,0,0,1,.8-.221Zm.551.42a1,1,0,0,1-.175.087,1.468,1.468,0,0,1-.242.062l-.205.038a1.341,1.341,0,0,0-.414.124.412.412,0,0,0-.213.383.4.4,0,0,0,.13.333.5.5,0,0,0,.317.1.942.942,0,0,0,.544-.171.724.724,0,0,0,.259-.623Z" transform="translate(-356.445 -661.573)"/><path class="g" d="M438.555,678.114v-.642h.48v-.961h.891v.961h.56v.642h-.56v1.821a.408.408,0,0,0,.054.264.593.593,0,0,0,.329.052h.087l.09,0v.673l-.427.016a1.143,1.143,0,0,1-.872-.221.658.658,0,0,1-.152-.477v-2.121Z" transform="translate(-361.472 -660.349)"/><path class="g" d="M445.636,676.577h-.914v-.831h.914Zm-.914.411h.914v3.446h-.914Z" transform="translate(-365.116 -659.897)"/><path class="g" d="M451.654,681.648a1.9,1.9,0,0,1-2.649,0,2.137,2.137,0,0,1,0-2.588,1.878,1.878,0,0,1,2.649,0,2.137,2.137,0,0,1,0,2.588Zm-.72-.5a1.61,1.61,0,0,0,0-1.6.8.8,0,0,0-1.215,0,1.6,1.6,0,0,0,0,1.6.8.8,0,0,0,1.215,0Z" transform="translate(-367.389 -661.532)"/><path class="g" d="M461.542,678.862a1.141,1.141,0,0,1,.338.928v2.32h-.923v-2.1a.954.954,0,0,0-.072-.417.506.506,0,0,0-.5-.266.623.623,0,0,0-.625.389,1.355,1.355,0,0,0-.088.525v1.865h-.9v-3.439h.873v.5a1.538,1.538,0,0,1,.328-.382,1.135,1.135,0,0,1,.7-.209A1.322,1.322,0,0,1,461.542,678.862Z" transform="translate(-373.416 -661.573)"/></g></g></svg>