<svg xmlns="http://www.w3.org/2000/svg" width="496" height="206" viewBox="0 0 496 206"><defs><style>.a{fill:none;}.b{fill:#4a859f;}.c{fill:#223762;fill-rule:evenodd;}</style></defs><g transform="translate(-712 -113)"><rect class="a" width="496" height="206" rx="4" transform="translate(712 113)"/><g transform="translate(-19.18 -21.913)"><g transform="translate(795.115 203.672)"><path class="b" d="M6558.869-1796.986c3.207-1.025,2.972-3.632,7.406-5.235,3.519-1.272,8.23-2.125,11.1-.31,2.068,3.058.747,11.271-.981,14.754-4.012,8.072-21.11,22.772-19.75,31.177,8.082,4.185,12.728-1.618,22.622-7.569,3.584-2.156,7.039-3.756,10.26-6.2,3.288-2.495,6.4-6.786,9.214-8.039,2.893,5.618,4.332,7.448,9.835,10.023,4.182-1.059,13.229-9.442,14.381-12.967,3.261-10.007-7.757-24.742-16.536-23.128-7.667,1.41-.033,13.04-8.746,17.423-3.35,1.685-6.6,3.592-10.455,3.65,1.564-5.865,5.31-9.371,3.942-18.109-2.306-14.7-13.991-18.587-25.938-9.945-4.393,3.176-9.726,6.292-6.358,14.474m49.027,16.964c.317-3.68,1.243-13.091,3.141-15.606,3.767,1.314,4.083,4.384,3.816,8.89-.291,4.983-1.785,6.487-6.957,6.715" transform="translate(-6256.013 1816.004)"/><path class="b" d="M6389.875-1751.271c4.611.727,4.155-2.922,8.1-5.62a20.51,20.51,0,0,1,10.866-3.639c.428,5.675-6.993,18.957-10.273,24.895-3.48,6.3-10.312,17.11-9.194,25.51,6.584,3.507,8.95,1.613,13.792-1.775,3.73-2.612,8.122-5.286,11.091-7.849,4.774-4.119,13.976-16.667,17.683-19.233,1.588,2.677.325,5.064,3.269,8.1,8.97,9.248,17.9-5.888,18.33-7.114,1.844-5.262.7-15.242-2.1-18.35-2.015-2.234-9.915-6.345-14.136-6.351-.574,3.933.452,4.8-.088,7.4-.08.4-1.578,5.406-1.881,6.3-1.382,4.076-4.864,6.46-7.813,8.706-4.629,3.527-14.775,10.531-20.211,12.479,1.014-3.345,2.745-4.471,4.706-8.276,4.7-9.106,9.15-18.61,2.1-28.955-8.61-12.642-29.516,4.6-24.241,13.777m52.14,12.841c.009-3.772.438-8.783,2.218-11.385,2.036,2.661,1.637,5.224,1.474,9.25Z" transform="translate(-6153.129 1787.458)"/><path class="b" d="M5777.819-1633.849c-.452,2.579,1.168,1.594,3.771,1.49l13.361-9.15c4.929-3.086,9.272-6.182,13.633-9.433,4.584-3.42,9.888-5.211,14.515-8.5,4.4-3.128,8.241-6.491,12.521-9.726,24.456-18.479,11.565-13.627,30.573-15.349,5.625-.51,15.69-1.147,16.354-6.7.925-7.774-9.63-5.621-13.934-6.184,1.036-.523,7.287-7.091,8.52-8.505,3.662-4.2,6.822-8.7,3.151-11.567-4.435-3.068-11.879,5.541-14.253,7.826-8.679,8.346-19.1,16.334-25.436,22.33l-12.321,10.729c-7.887,7.713-16.936,14.576-25.292,21.643l-19.328,16.087c-2.316,2.1-3.275,4.418-5.835,5.007" transform="translate(-5777.744 1755.897)"/><path class="b" d="M6084.308-1742.653c-.888-27.025,5.8-23.183,5.48-32.756-4.356-1.494-4.01-1.189-7.1.8-5.914,3.813-9.358,10.656-11.848,16.97-1.753,4.443-2.72,10.957-1.4,15.951,2.381,9.017,5.118,8.267,8.262,10.773-.962,4.819-6.824,9.031-8.6,15.434-1.619,5.815-1.343,16.323,5.281,16.658,4.528.23,11.833-5.955,13.615-9.315,3.746-7.08-4.893-8.012-8.173-9.976-1.487-.888-.544-.168-1.48-1.208,9.676-13.234,8.485-5.733,12.85-12,2.1-3.011,3.563-3.839,5.84-6.5,1.736-2.032,4.787-3.96,4.39-8-4.707-2.72-12.124,2.648-17.116,3.165m-8.993,31.868c3.049-.267,2.6-.607,4.87.57-1.158,2.373-2.235,3.168-5.27,4.369Z" transform="translate(-5956.156 1791.652)"/><path class="b" d="M6292.07-1736.388c1.619-3.96,6.287-6,8.33-10.474,3.79-8.312-5.244-14.8,2.01-34.406,1.966-5.313,4.456-11.015-2.619-12.542-2.916,1.867-5.066,6.15-7.144,10.127-2.953,5.646-1.8,8.893-3.26,14.223l-7.1,3.493c.266-2.453,1.636-6.16.349-8.071-5.487-8.154-16.294,17.028-11.538,24.146,3.721,5.568,7.193,5.545,10.791,6l9.525-14.977,4.264,9.774c-2.383,4.707-21.133,20.3-14.691,29.689,1.723,1.566.059,1.556,3.8.943a11.764,11.764,0,0,0,3.03-1.284c6.437-3.615,11.113-7.89,10.876-15.9Zm-7.006,12.08a9.537,9.537,0,0,1,3.248-7.38l5.707.143c-.955,3.193-5.783,5.911-8.955,7.237" transform="translate(-6079.98 1802.375)"/><path class="b" d="M6167.6-1724.824c2.35-2.825,5.061-5.093,7.724-8.242,2.907-3.433,4.183-6.5,6.885-9.564,1.393-1.585,3.97-2.8,2.234-5.686-1.531-2.543-4.506-1.521-6.411-.3l-42.458,38.922,1.173,4.171c8.243-.035,10.346-6.386,21.616-7.479,4.622-.448,8.239.488,13.021.6,10.759.243,9.492.32,10.921-3.018,3.066-7-8.4-8.609-14.7-9.4" transform="translate(-5997.481 1775.404)"/></g><g transform="translate(794 148.673)"><g transform="translate(91.451)"><path class="c" d="M2422.428,327.058v-1.514h-2.189q.12-.465.218-.952l.247-1.237q.1-.54.217-1.335a9.27,9.27,0,0,0,.113-1.154h-10.345v1.514h8.336a15.662,15.662,0,0,1-.247,1.679q-.172.854-.322,1.484h-9.221v1.514h5.413v2.189h-3.914v1.53h8.306v2.819h1.739v-4.348h-4.3v-2.189Z" transform="translate(-2409.235 -320.326)"/><path class="c" d="M2465.253,332.665V319.471h-1.68v4.888H2462.1v-4.588h-1.679v12.294h1.679v-6h1.469v6.6Zm-5.623-3.329V327.7q-.374.06-1,.135t-1.095.105l-1.619.03V320.76h-1.739v8.861h1.05q.974,0,1.964-.045.675-.03,1.395-.1C2459.061,329.421,2459.411,329.376,2459.63,329.336Z" transform="translate(-2439.195 -319.396)"/><path class="c" d="M2503.084,330.161v-1.5q-.779.12-2.129.195t-1.829.075v-2.264h-1.784v2.279h-3.9v1.544h3.808q1.439,0,3.305-.135T2503.084,330.161Zm-.99-4.363a4.394,4.394,0,0,1-.8-.315,6.448,6.448,0,0,1-.982-.615,4.692,4.692,0,0,1-.712-.652,2.542,2.542,0,0,1-.427-.727h2.789V322h-7.452v1.484h2.789a2.376,2.376,0,0,1-.4.787,3.613,3.613,0,0,1-.772.7,5.166,5.166,0,0,1-1.2.652q-.645.248-1.035.367l1.11,1.289q.24-.075.765-.285a5.865,5.865,0,0,0,1.064-.57,8.117,8.117,0,0,0,.877-.675,3.454,3.454,0,0,0,.533-.57,5.242,5.242,0,0,0,.494.517,8.367,8.367,0,0,0,.765.607,5.473,5.473,0,0,0,.975.555q.4.165.644.24Zm-1.769-4.6v-1.484h-4.243V321.2Zm4.932,11.47V319.471h-1.739v13.194Z" transform="translate(-2465.378 -319.396)"/><path class="c" d="M2546.583,331.96v-1.514H2540.9v-2.429h-1.859v2.429h-5.652v1.514Zm-5.562-7.781h4.168v-1.484H2534.8v1.484h4.153a4.162,4.162,0,0,1-.607.907,4.573,4.573,0,0,1-1.1.877,8.39,8.39,0,0,1-1.679.742q-.945.307-1.485.427l1.11,1.349q.36-.075,1.23-.33a7.213,7.213,0,0,0,1.634-.7,8.054,8.054,0,0,0,1.267-.87.667.667,0,1,1,1.334,0,8.037,8.037,0,0,0,1.267.87,7.194,7.194,0,0,0,1.634.7q.869.255,1.229.33l1.11-1.349q-.539-.12-1.477-.427a8.836,8.836,0,0,1-1.686-.742,4.584,4.584,0,0,1-1.1-.877A4.185,4.185,0,0,1,2541.021,324.179Zm1.724-2.564v-1.469H2537.2v1.469Z" transform="translate(-2492.01 -319.846)"/><path class="c" d="M2600.324,322.155q0,.555-.87.967a6.823,6.823,0,0,1-4.692-.008q-.885-.42-.885-.975,0-.585.952-.982a5.92,5.92,0,0,1,2.286-.4,5.692,5.692,0,0,1,2.287.4Q2600.324,321.57,2600.324,322.155Zm2.174,10.12v-1.514h-8.516V328.5h-1.814v3.778Zm1.214-4.648v-1.514h-5.682V324.9a6.2,6.2,0,0,0,3.186-.915,2.232,2.232,0,0,0,1.057-1.844,2.332,2.332,0,0,0-1.395-1.994,9.151,9.151,0,0,0-7.526,0,2.332,2.332,0,0,0-1.379,1.994,2.249,2.249,0,0,0,1.05,1.829,6.025,6.025,0,0,0,3.163.93v1.214h-5.667v1.514Z" transform="translate(-2530.099 -319.306)"/><path class="c" d="M2642.264,329.7v-1.5q-.675.105-1.987.217t-2.271.127l-1.889.015v-2.549h4.588v-5.352h-6.327v1.529h4.588v2.324h-4.588v5.577l3.014-.03q1.3-.015,2.736-.135T2642.264,329.7Zm4.633-3.448v-1.574h-1.919v-5.2h-1.739v13.194h1.739v-6.417Z" transform="translate(-2559.34 -319.396)"/><path class="c" d="M2678.942,321.39a1.786,1.786,0,0,1,1.417.555,1.934,1.934,0,0,1,.487,1.319,1.915,1.915,0,0,1-.487,1.3,1.786,1.786,0,0,1-1.417.555,1.766,1.766,0,0,1-1.4-.555,1.912,1.912,0,0,1-.487-1.3,1.932,1.932,0,0,1,.487-1.319A1.766,1.766,0,0,1,2678.942,321.39Zm0-1.514a3.646,3.646,0,0,0-2.639,1,3.272,3.272,0,0,0,0,4.775,4.023,4.023,0,0,0,5.285,0,3.256,3.256,0,0,0,0-4.775A3.672,3.672,0,0,0,2678.942,319.876Zm8.231,12.489v-1.514h-8.156v-2.714H2677.2v4.228Zm-.3-3.358v-9.535h-1.739v9.535Z" transform="translate(-2586.603 -319.396)"/><path class="c" d="M2741.648,329.516v-1.424q-.675.1-1.882.225t-2.136.15q-1.365.06-3.4.053l-2.189-.008v1.544l1.724.007q1.6.007,2.894-.037,1.484-.06,2.841-.2T2741.648,329.516Zm-3.134-5.907a1.87,1.87,0,0,1-.54,1.342,2.341,2.341,0,0,1-3.043,0,1.871,1.871,0,0,1-.54-1.342,1.846,1.846,0,0,1,.54-1.335,2.365,2.365,0,0,1,3.043,0A1.845,1.845,0,0,1,2738.515,323.609Zm5.353,9.055V319.471h-1.74v13.194Zm-7.422-12.459a3.91,3.91,0,0,0-2.773,1,3.222,3.222,0,0,0,0,4.813,4.341,4.341,0,0,0,5.554,0,3.207,3.207,0,0,0,0-4.813A3.936,3.936,0,0,0,2736.446,320.206Z" transform="translate(-2624.451 -319.396)"/><path class="c" d="M2778.941,325.228a.763.763,0,0,1-.5.675,3.107,3.107,0,0,1-1.387.255,3.356,3.356,0,0,1-1.4-.248q-.532-.247-.532-.667t.532-.637a3.548,3.548,0,0,1,1.4-.232,3.478,3.478,0,0,1,1.387.225A.7.7,0,0,1,2778.941,325.228Zm5.188,7.286v-4.153h-9.791v1.5h8.006v2.654Zm-3.343-7.271a1.787,1.787,0,0,0-1-1.552,5.249,5.249,0,0,0-2.736-.607,5.451,5.451,0,0,0-2.736.607,1.78,1.78,0,0,0-1.057,1.552,1.843,1.843,0,0,0,1.064,1.581,5.182,5.182,0,0,0,2.7.637,5.129,5.129,0,0,0,2.751-.637A1.85,1.85,0,0,0,2780.785,325.243Zm5.142-.795V322.9h-1.8v-3.583h-1.74v8.4h1.74v-3.268Zm-4.708-1.814v-1.379h-8.381v1.379Zm-1.994-2.009v-1.38h-4.408v1.38Z" transform="translate(-2651.653 -319.246)"/><path class="c" d="M2820.326,325.228a.763.763,0,0,1-.5.675,3.106,3.106,0,0,1-1.387.255,3.355,3.355,0,0,1-1.4-.248q-.532-.247-.532-.667t.532-.637a3.547,3.547,0,0,1,1.4-.232,3.477,3.477,0,0,1,1.387.225A.7.7,0,0,1,2820.326,325.228Zm5.187,7.286v-4.153h-9.79v1.5h8.006v2.654Zm-3.343-7.271a1.786,1.786,0,0,0-1-1.552,5.249,5.249,0,0,0-2.736-.607,5.448,5.448,0,0,0-2.736.607,1.78,1.78,0,0,0-1.057,1.552,1.843,1.843,0,0,0,1.065,1.581,5.184,5.184,0,0,0,2.7.637,5.128,5.128,0,0,0,2.751-.637A1.85,1.85,0,0,0,2822.17,325.243Zm5.143-.795V322.9h-1.8v-3.583h-1.739v8.4h1.739v-3.268Zm-4.708-1.814v-1.379h-8.381v1.379Zm-1.994-2.009v-1.38H2816.2v1.38Z" transform="translate(-2679.245 -319.246)"/><path class="c" d="M2861.156,321.72a3.174,3.174,0,0,0,.787.727,6.96,6.96,0,0,0,1.312.727,14.015,14.015,0,0,0,1.5.532q.7.2,1.2.307l1.02-1.215a9.885,9.885,0,0,1-1.417-.36,11.7,11.7,0,0,1-1.792-.735,3.39,3.39,0,0,1-1.169-.892,1.644,1.644,0,0,1-.374-1.012v-.465h-2.069v.465a1.586,1.586,0,0,1-.4,1.012,3.656,3.656,0,0,1-1.192.892,11.832,11.832,0,0,1-1.784.735,9.48,9.48,0,0,1-1.425.36l1.02,1.215q.495-.1,1.207-.307a12.847,12.847,0,0,0,1.492-.532,6.741,6.741,0,0,0,1.3-.727A3.2,3.2,0,0,0,2861.156,321.72Zm-.945,5.232h-3.988v1.379h7.976v.75h-7.976v3.343h10.21v-1.379h-8.306v-.75h7.991v-3.343h-3.988v-.915h5.637v-1.424h-13.194v1.424h5.637Z" transform="translate(-2706.147 -319.306)"/><path class="c" d="M2910.4,332.665V319.471h-1.679v4.8h-1.469v-4.5h-1.679v12.294h1.679v-6.132h1.469v6.732Zm-5.577-3.059v-1.589q-.33.045-1.049.1t-1.424.075h-1.32v-5.562H2904V321h-4.708v8.831l2.339-.015q1.379-.015,2.129-.09T2904.82,329.606Z" transform="translate(-2735.958 -319.396)"/><path class="c" d="M2945.051,326.068q0,.375-.5.607a2.9,2.9,0,0,1-1.222.232,2.765,2.765,0,0,1-1.184-.232q-.5-.232-.5-.607,0-.39.5-.637a2.621,2.621,0,0,1,1.184-.247,2.711,2.711,0,0,1,1.244.247.73.73,0,0,1,.48.637Zm3.073,4.333v-1.544q-.735.1-2.084.195t-1.709.09v-1a3.7,3.7,0,0,0,1.761-.75,1.673,1.673,0,0,0,.7-1.319,1.848,1.848,0,0,0-.945-1.552,4.437,4.437,0,0,0-2.519-.637,4.542,4.542,0,0,0-2.459.63,1.826,1.826,0,0,0-1,1.559,1.693,1.693,0,0,0,.735,1.357,3.963,3.963,0,0,0,1.859.757v1.02h-3.9v1.544h3.073q2.009,0,3.793-.12T2948.124,330.4Zm-.87-6.986V321.96h-7.946v1.454Zm-1.874-2.2V319.8h-4.228v1.409Zm4.992,11.455V319.471h-1.724v13.194Z" transform="translate(-2762.14 -319.396)"/></g><g transform="translate(0 23.577)"><path class="c" d="M2366.565,411.755V390.629h-3.422v21.126Zm-4.515-.951V391.1h-3.422v6.844h-2.519v3.327h2.519V410.8Zm-3.945-5.252a11.575,11.575,0,0,1-2.662-2.5q-1.354-1.664-1.355-5.395v-1.806h3.042v-3.066h-9.719v3.066h3.042v1.806a8.865,8.865,0,0,1-4.468,8.413l2.59,2.424a19.642,19.642,0,0,0,2.1-1.676,4.832,4.832,0,0,0,1.58-2.293,14,14,0,0,0,1.592,2.044,9.4,9.4,0,0,0,1.949,1.568Z" transform="translate(-2345.985 -390.415)"/><path class="c" d="M2422.179,403.2a4.578,4.578,0,0,0,1.521-1.426,4.263,4.263,0,0,0,.689-2.519,4.767,4.767,0,0,0-1.592-3.529,6.43,6.43,0,0,0-8.389.047,4.746,4.746,0,0,0-1.521,3.909h3.184a2.428,2.428,0,0,1,.594-1.818,2.46,2.46,0,0,1,1.972-.772,2.241,2.241,0,0,1,1.913.772,2.328,2.328,0,0,1,.535,1.556,1.992,1.992,0,0,1-.357,1.141,2.48,2.48,0,0,1-.808.713,3.963,3.963,0,0,1-1.188.392,8.71,8.71,0,0,1-1.426.107v2.947q.594,0,1.212.024a5.9,5.9,0,0,1,1.26.19,2.847,2.847,0,0,1,1.4.974,2.115,2.115,0,0,1,.428,1.5,2.688,2.688,0,0,1-.867,1.77,2.951,2.951,0,0,1-2.1.725,3.149,3.149,0,0,1-2.234-.8,2.5,2.5,0,0,1-.76-2.127h-3.232a5.084,5.084,0,0,0,1.711,4.337,6.579,6.579,0,0,0,4.539,1.675,6.464,6.464,0,0,0,4.515-1.64,5.143,5.143,0,0,0,1.806-3.945,4.243,4.243,0,0,0-.808-2.483A5.128,5.128,0,0,0,2422.179,403.2Z" transform="translate(-2390.263 -392.792)"/><path class="c" d="M2462.25,403.2a4.584,4.584,0,0,0,1.521-1.426,4.267,4.267,0,0,0,.689-2.519,4.764,4.764,0,0,0-1.592-3.529,6.43,6.43,0,0,0-8.389.047,4.745,4.745,0,0,0-1.521,3.909h3.185a2.427,2.427,0,0,1,.594-1.818,2.461,2.461,0,0,1,1.972-.772,2.241,2.241,0,0,1,1.913.772,2.327,2.327,0,0,1,.535,1.556,2,2,0,0,1-.357,1.141,2.485,2.485,0,0,1-.808.713,3.968,3.968,0,0,1-1.188.392,8.718,8.718,0,0,1-1.426.107v2.947q.594,0,1.212.024a5.9,5.9,0,0,1,1.26.19,2.848,2.848,0,0,1,1.4.974,2.113,2.113,0,0,1,.428,1.5,2.688,2.688,0,0,1-.867,1.77,2.952,2.952,0,0,1-2.1.725,3.149,3.149,0,0,1-2.234-.8,2.5,2.5,0,0,1-.76-2.127h-3.232a5.085,5.085,0,0,0,1.711,4.337,6.58,6.58,0,0,0,4.539,1.675,6.465,6.465,0,0,0,4.515-1.64,5.143,5.143,0,0,0,1.806-3.945,4.243,4.243,0,0,0-.808-2.483A5.129,5.129,0,0,0,2462.25,403.2Z" transform="translate(-2416.979 -392.792)"/><path class="c" d="M2506.555,405.7a15.677,15.677,0,0,1-3.41-2.436,5.378,5.378,0,0,1-1.865-4.171v-.618h4.325v-3.137h-12.524v3.137h4.325v.618a6.011,6.011,0,0,1-1.818,4.3,14.8,14.8,0,0,1-3.79,2.9l2.661,2.519a13.469,13.469,0,0,0,2.733-2.02,10.046,10.046,0,0,0,2.21-2.8,10.632,10.632,0,0,0,2,2.317,16.636,16.636,0,0,0,2.8,2.032Zm7.343-3.684v-3.3h-2.852v-8.08h-3.541v21.126h3.541v-9.743ZM2502.967,394v-2.947H2495.7V394Z" transform="translate(-2443.2 -390.415)"/><path class="c" d="M2605.64,411.755V390.629h-3.422v7.747h-1.569V391.1h-3.422v19.7h3.422v-8.864h1.569v9.815Zm-9.292-4.919v-2.971q-.57.095-1.9.285a17.659,17.659,0,0,1-2.495.19h-1.069v-8.365h4.373V392.91h-7.914v14.5h3.066a25.881,25.881,0,0,0,3.957-.238Q2595.826,406.931,2596.348,406.836Z" transform="translate(-2506.9 -390.415)"/><path class="c" d="M2659.213,400.348q0,.57-.808.808a6.036,6.036,0,0,1-1.711.238,6.829,6.829,0,0,1-1.771-.226q-.844-.226-.844-.844,0-.57.844-.832a5.946,5.946,0,0,1,1.771-.262,5.521,5.521,0,0,1,1.711.262Q2659.213,399.754,2659.213,400.348Zm9.553,10.5v-2.923h-12.239v-3.042h-3.778v5.965Zm-5.941-10.48a3.138,3.138,0,0,0-1.747-2.745,8.438,8.438,0,0,0-4.432-1.058,8.62,8.62,0,0,0-4.349,1.046,2.92,2.92,0,0,0,0,5.418,9.523,9.523,0,0,0,8.769,0A3.1,3.1,0,0,0,2662.825,400.372Zm8.056-.737v-3.185h-2.709V390.2h-3.541v15.565h3.541v-6.131Zm-7.509-3.47v-2.757h-13.427v2.757Zm-3.042-3.494v-2.685h-7.391v2.685Z" transform="translate(-2548.638 -389.987)"/><path class="c" d="M2730.942,407.288q0,.808-1.188,1.331a10.358,10.358,0,0,1-6.5,0q-1.177-.523-1.176-1.331,0-.831,1.176-1.331a10.832,10.832,0,0,1,6.5,0Q2730.942,406.456,2730.942,407.288Zm3.9,0a3.969,3.969,0,0,0-2.1-3.4,11.634,11.634,0,0,0-6.238-1.354,11.4,11.4,0,0,0-6.167,1.343,3.808,3.808,0,0,0,0,6.761,11.321,11.321,0,0,0,6.167,1.355,11.719,11.719,0,0,0,6.238-1.342A3.926,3.926,0,0,0,2734.839,407.288Zm-5.2-6.773v-2.947q-1.259.237-3.66.452t-3.969.214h-1.64v-3.47h7.6V391.7h-11.145v9.6h3.137a56.244,56.244,0,0,0,6.1-.273Q2728.494,400.753,2729.635,400.515Zm7.581-2.234v-3.066h-2.828v-4.586h-3.541v11.74h3.541v-4.087Z" transform="translate(-2593.228 -390.415)"/><path class="c" d="M2791.953,408.4h-3.327v-4.776h3.327Zm8.745,3.066V408.4h-5.2v-4.776h2.947v-3.066h-12.833v-7.438h-3.541v10.5h3.018V408.4h-5.514v3.066Z" transform="translate(-2635.062 -392.078)"/><path class="c" d="M2863.8,407.6q0,.618-1.26,1.105a9.489,9.489,0,0,1-3.351.487,9.36,9.36,0,0,1-3.375-.5q-1.259-.5-1.26-1.117,0-.642,1.248-1.081a10.405,10.405,0,0,1,3.363-.44,10.791,10.791,0,0,1,3.375.428Q2863.8,406.908,2863.8,407.6Zm-7.129-8.365h-4.135v-1.9h4.135Zm6.987-1.711h-3.47v-1.188h3.47Zm3.9,10.076a3.61,3.61,0,0,0-2.126-3.1,16.281,16.281,0,0,0-12.5,0,3.609,3.609,0,0,0-2.126,3.1,3.658,3.658,0,0,0,2.15,3.125,15.909,15.909,0,0,0,12.464,0A3.658,3.658,0,0,0,2867.556,407.6Zm-.356-4.349V390.629h-3.541v2.757h-3.47v-2.044h-3.517v3.018h-4.135v-3.018h-3.517v10.908h11.169v-1.782h3.47v2.78Z" transform="translate(-2681.363 -390.415)"/><path class="c" d="M2921.461,400.015q0,.523-.725.784a4.847,4.847,0,0,1-1.652.262,5.344,5.344,0,0,1-1.652-.25q-.772-.249-.772-.772,0-.5.784-.749a5.638,5.638,0,0,1,3.279-.012Q2921.462,399.516,2921.461,400.015Zm9.1,11.312v-6.891h-15.922v2.947H2926.9v3.945Zm-5.394-11.312a2.79,2.79,0,0,0-1.735-2.5,9.1,9.1,0,0,0-4.325-.927,9.5,9.5,0,0,0-4.3.939,2.823,2.823,0,0,0-1.877,2.507,2.984,2.984,0,0,0,1.865,2.555,9.611,9.611,0,0,0,8.65.012A2.987,2.987,0,0,0,2925.169,400.015Zm8.1-1.117V395.69h-2.709V390.2h-3.541v13.5h3.541v-4.8Zm-7.51-2.733v-2.757h-13.427v2.757Zm-3.042-3.494v-2.685h-7.39v2.685Z" transform="translate(-2723.577 -389.987)"/><path class="c" d="M2988.271,401.252q0,.522-.772.784a5.2,5.2,0,0,1-1.676.261,5.118,5.118,0,0,1-1.627-.25q-.749-.25-.749-.8t.749-.773a5.619,5.619,0,0,1,1.627-.226,5.956,5.956,0,0,1,1.676.226Q2988.272,400.7,2988.271,401.252Zm5.11,7.248v-2.971q-1.117.095-2.744.238t-2.769.166v-1.378a8.1,8.1,0,0,0,2.7-1.177,2.464,2.464,0,0,0,1.153-2.127,2.868,2.868,0,0,0-1.711-2.567,9.571,9.571,0,0,0-8.317,0,2.867,2.867,0,0,0-1.735,2.567,2.572,2.572,0,0,0,1.248,2.174,7.663,7.663,0,0,0,2.911,1.2v1.355h-5.893v3.113h3.588q3.684,0,6.82-.178T2993.38,408.5Zm4.04,3.256V390.629h-3.541v21.126Zm-5.014-14.33v-2.8h-13.142v2.8Zm-2.971-3.636v-2.709h-7.248v2.709Z" transform="translate(-2767.502 -390.415)"/><g transform="translate(242.014 0.374)"><g transform="translate(0 0)"><path class="c" d="M2516.774,495.891v-3.066h-13.308v-2.757h-3.659v5.822Zm1.782-6.606v-2.971H2497.43v2.971h9.173V491.9h3.636v-2.614Zm-1.165-6.25a18.193,18.193,0,0,1-3.79-.725,13.123,13.123,0,0,1-3.149-1.271h6.036v-2.733H2499.5v2.733h5.965a8.952,8.952,0,0,1-2.97,1.271,19.188,19.188,0,0,1-3.826.725l1.806,2.59a14.469,14.469,0,0,0,3.981-.713,11.364,11.364,0,0,0,3.529-1.663,12.324,12.324,0,0,0,3.791,1.639,17.553,17.553,0,0,0,3.814.737Zm-4.705-5.561v-2.709h-9.41v2.709Z" transform="translate(-2497.43 -474.765)"/><path class="c" d="M2573.2,481.609v2.733h2.21v2.614h-2.566v3.066h2.566v6.345h3.422v-19.7h-3.422v4.61h-2.162q.07-.689.107-1.342t.035-1.248h-8.769v3.065h4.943a9.961,9.961,0,0,1-2.34,6.535,15.259,15.259,0,0,1-4.052,3.8l2.638,1.972a17.554,17.554,0,0,0,4.848-4.955A15.579,15.579,0,0,0,2573.2,481.609Zm10.1,15.708V476.191h-3.422v21.126Z" transform="translate(-2541.26 -475.716)"/><path class="c" d="M2639.32,485.578q0,.522-.725.784a4.85,4.85,0,0,1-1.652.262,5.339,5.339,0,0,1-1.651-.25q-.772-.249-.772-.772,0-.5.784-.749a5.64,5.64,0,0,1,3.28-.012Q2639.32,485.079,2639.32,485.578Zm9.1,11.312V490H2632.5v2.947h12.262v3.945Zm-5.395-11.312a2.79,2.79,0,0,0-1.735-2.5,9.1,9.1,0,0,0-4.325-.927,9.491,9.491,0,0,0-4.3.939,2.822,2.822,0,0,0-1.877,2.507,2.984,2.984,0,0,0,1.865,2.555,9.612,9.612,0,0,0,8.65.012A2.987,2.987,0,0,0,2643.027,485.578Zm8.1-1.117v-3.208h-2.709v-5.49h-3.541v13.5h3.541v-4.8Zm-7.509-2.733v-2.757h-13.427v2.757Zm-3.042-3.494v-2.685h-7.391v2.685Z" transform="translate(-2585.945 -475.288)"/><path class="c" d="M2714.257,480.967a20.34,20.34,0,0,1-4.884-1.735q-2.625-1.283-2.626-2.828v-.785h-3.921v.785q0,1.449-2.448,2.745a18.563,18.563,0,0,1-5.062,1.818l2.186,2.353a20.373,20.373,0,0,0,3.992-1.224,8.229,8.229,0,0,0,3.256-2.1,10.033,10.033,0,0,0,3.4,2.115,18.089,18.089,0,0,0,3.874,1.212Zm-11.431,6.749h-6.107v2.543h12.167v.808h-12.167V496.7h16.611v-2.543h-12.642v-.808h12.167v-5.632h-6.108v-1.046h8.6v-2.852h-21.127v2.852h8.6Z" transform="translate(-2628.634 -475.335)"/><path class="c" d="M2782.683,497.317V476.191h-3.422v7.747h-1.569v-7.272h-3.422v19.7h3.422V487.5h1.569v9.814Zm-9.292-4.919v-2.971q-.57.1-1.9.285a17.714,17.714,0,0,1-2.5.19h-1.069v-8.365h4.373v-3.066h-7.914v14.5h3.065a25.875,25.875,0,0,0,3.957-.238Q2772.868,492.493,2773.391,492.4Z" transform="translate(-2675.411 -475.716)"/><path class="c" d="M2837.325,486.814q0,.523-.772.784a5.2,5.2,0,0,1-1.676.261,5.112,5.112,0,0,1-1.628-.25q-.749-.25-.749-.8t.749-.773a5.62,5.62,0,0,1,1.628-.226,5.96,5.96,0,0,1,1.676.226q.772.226.772.773Zm5.109,7.248v-2.971q-1.117.1-2.745.238t-2.769.166v-1.378a8.1,8.1,0,0,0,2.7-1.177,2.466,2.466,0,0,0,1.153-2.127,2.868,2.868,0,0,0-1.711-2.567,9.571,9.571,0,0,0-8.317,0,2.867,2.867,0,0,0-1.735,2.567,2.574,2.574,0,0,0,1.248,2.174,7.676,7.676,0,0,0,2.911,1.2v1.354h-5.893v3.113h3.588q3.683,0,6.821-.178T2842.434,494.062Zm4.04,3.256V476.191h-3.541v21.126Zm-5.014-14.33v-2.8h-13.142v2.8Zm-2.971-3.636v-2.709h-7.248v2.709Z" transform="translate(-2717.339 -475.716)"/></g></g></g></g></g></g></svg>